<svg width="541" height="637" viewBox="0 0 541 637" fill="none" xmlns="http://www.w3.org/2000/svg">
<g clip-path="url(#clip0_203_104)">
<path d="M380.63 634.695H145.318C119.807 634.695 99.0523 610.398 99.0523 580.532V54.162C99.0523 24.2971 119.807 0 145.318 0H380.63C406.14 0 426.895 24.2971 426.895 54.162V580.532C426.895 610.398 406.14 634.695 380.63 634.695Z" fill="#3F3D56"/>
<path d="M426.896 193.616C425.816 193.616 424.938 194.644 424.938 195.908V269.23C424.938 270.493 425.816 271.521 426.896 271.521C427.975 271.521 428.853 270.493 428.853 269.23V195.908C428.853 194.644 427.975 193.616 426.896 193.616Z" fill="#3F3D56"/>
<path d="M422.492 54.1624V580.523C422.492 606.518 405.209 627.782 383.356 629.431H383.347C383.024 629.454 382.701 629.477 382.368 629.489C381.79 629.523 381.213 629.535 380.626 629.535C380.626 629.535 378.473 629.351 374.539 629.008C370.566 628.664 364.782 628.148 357.569 627.472C355.406 627.278 353.126 627.06 350.719 626.831C345.923 626.373 340.658 625.868 335.012 625.296C332.761 625.078 330.432 624.837 328.054 624.597C315.899 623.371 302.286 621.939 287.929 620.312C285.502 620.049 283.056 619.774 280.59 619.487C279.944 619.407 279.288 619.338 278.632 619.258C268.396 618.078 257.876 616.806 247.316 615.455C246.66 615.374 246.005 615.294 245.359 615.214C227.166 612.865 208.905 610.31 191.818 607.561C178.675 605.453 166.226 603.23 155.05 600.927C151.41 600.171 147.906 599.415 144.559 598.648C143.904 598.499 143.248 598.35 142.602 598.189C118.948 592.644 103.457 586.664 103.457 580.523V54.1624C103.457 27.0906 122.198 5.15118 145.323 5.15118H170.317C174.31 5.15118 177.52 8.79436 177.862 13.4572C177.892 13.7666 177.921 14.0758 177.97 14.3852C178.694 19.071 182.364 22.336 186.435 22.336H339.513C343.585 22.336 347.254 19.0709 347.979 14.3852C348.027 14.0758 348.057 13.7666 348.086 13.4572C348.429 8.79436 351.639 5.15118 355.632 5.15118H380.626C403.751 5.15118 422.492 27.0905 422.492 54.1624Z" fill="white"/>
<path d="M224.983 532.731C225.13 533.499 225.257 534.255 225.385 535.022H154.835C150.274 535.022 146.399 538.517 145.058 543.34C144.794 542.836 144.52 542.332 144.256 541.828V541.816C144.334 541.014 144.412 540.212 144.5 539.41C145.9 526.453 148.64 513.725 152.662 501.535C158.348 502.68 163.76 498.212 164.748 491.556C165.267 488.004 164.425 484.35 162.439 481.589L162.086 478.186L162.449 477.43C170.229 461.723 187.414 456.384 200.821 465.492C207.192 469.811 211.86 476.903 213.807 485.221C217.507 500.928 222.106 516.783 224.983 532.731Z" fill="#FAFAFA"/>
<path d="M414.937 403.329L414.76 404.074C410.934 405.277 407.176 406.754 403.516 408.496C401.422 409.504 399.357 410.592 397.321 411.772C390.314 415.874 387.476 425.841 390.989 434.044C392.761 438.203 395.951 441.296 399.778 442.579L400.052 442.671L400.639 442.866C392.555 459.306 382.123 474.005 369.792 486.309C352.03 551.623 305.907 551.279 259.392 524.654L259.363 524.643C255.781 536.099 251.759 547.338 247.316 558.359C246.67 559.952 246.024 561.533 245.359 563.114V547.052C245.359 546.021 245.251 545.012 245.036 544.062C245.427 543.042 245.799 542.022 246.171 540.991C258.12 508.088 266.184 473.317 270.059 437.653C271.557 423.733 272.389 409.733 272.555 395.71C272.682 384.219 272.369 372.74 271.635 361.283C267.564 299.097 250.956 238.927 223.163 185.711C208.298 173.166 197.073 155.58 191.005 135.337C188.793 128.062 187.502 120.443 187.159 112.721C188.93 113.271 197.376 81.8918 196.221 79.7265C199.216 75.6364 203.943 74.0784 207.153 70.1373C223.104 50.5007 241.483 57.0539 248.128 87.895C267.74 103.35 265.744 123.903 250.77 141.752C241.248 153.106 238.293 169.924 229.681 182.309C230.297 183.523 230.953 184.715 231.57 185.929C242.883 208.223 252.297 231.755 259.686 256.204C260.058 230.094 265.714 204.454 276.195 181.404C286.608 160.014 303.627 143.219 318.913 125.644C330.226 112.446 348.546 112.481 359.82 125.725C365.232 132.083 368.265 140.698 368.265 149.669L368.246 150.54C366.152 151.548 364.087 152.636 362.051 153.816C355.044 157.918 352.216 167.896 355.719 176.088C357.491 180.246 360.681 183.351 364.508 184.623L364.782 184.715C363.196 192.883 361.092 200.891 358.469 208.682C367.16 287.766 327.633 310.29 275.344 303.863C274.111 304.39 272.917 304.917 271.694 305.398C278.074 339.711 280.609 374.859 279.239 409.928C278.378 430.619 276.088 451.195 272.398 471.45L272.565 470.739C278.789 448.525 291.364 429.507 308.177 416.894C333.123 398.483 365.917 395.183 392.183 381.298C400.296 376.761 410.004 380.782 413.88 390.28C415.543 394.347 415.915 398.964 414.937 403.329Z" fill="#FAFAFA"/>
<path d="M98.0739 138.625C96.9944 138.625 96.1166 139.652 96.1166 140.916V159.247C96.1166 160.51 96.9944 161.538 98.0739 161.538C99.1533 161.538 100.031 160.51 100.031 159.247V140.916C100.031 139.652 99.1533 138.625 98.0739 138.625Z" fill="#3F3D56"/>
<path d="M98.0739 193.616C96.9944 193.616 96.1166 194.644 96.1166 195.908V231.423C96.1166 232.687 96.9944 233.714 98.0739 233.714C99.1533 233.714 100.031 232.687 100.031 231.423V195.908C100.031 194.644 99.1533 193.616 98.0739 193.616Z" fill="#3F3D56"/>
<path d="M98.0739 244.025C96.9944 244.025 96.1166 245.053 96.1166 246.317V281.832C96.1166 283.096 96.9944 284.123 98.0739 284.123C99.1533 284.123 100.031 283.096 100.031 281.832V246.317C100.031 245.053 99.1533 244.025 98.0739 244.025Z" fill="#3F3D56"/>
<path d="M168.046 13.1752H133.794C132.713 13.1752 131.837 14.2011 131.837 15.4665V16.6122C131.837 17.8777 132.713 18.9035 133.794 18.9035H168.046C169.127 18.9035 170.004 17.8777 170.004 16.6122V15.4665C170.004 14.2011 169.127 13.1752 168.046 13.1752Z" fill="#3F3D56"/>
<path d="M361.816 18.9035C363.978 18.9035 365.731 16.8518 365.731 14.3209C365.731 11.79 363.978 9.73828 361.816 9.73828C359.654 9.73828 357.902 11.79 357.902 14.3209C357.902 16.8518 359.654 18.9035 361.816 18.9035Z" fill="#3F3D56"/>
<path d="M372.581 18.9035C374.743 18.9035 376.496 16.8518 376.496 14.3209C376.496 11.79 374.743 9.73828 372.581 9.73828C370.419 9.73828 368.667 11.79 368.667 14.3209C368.667 16.8518 370.419 18.9035 372.581 18.9035Z" fill="#3F3D56"/>
<path d="M383.346 18.9035C385.508 18.9035 387.261 16.8518 387.261 14.3209C387.261 11.79 385.508 9.73828 383.346 9.73828C381.184 9.73828 379.432 11.79 379.432 14.3209C379.432 16.8518 381.184 18.9035 383.346 18.9035Z" fill="#3F3D56"/>
<path d="M351.051 71.031H174.897C170.31 71.031 166.578 66.6626 166.578 61.2929C166.578 55.9232 170.31 51.5548 174.897 51.5548H351.051C355.638 51.5548 359.37 55.9232 359.37 61.2929C359.37 66.6626 355.638 71.031 351.051 71.031Z" fill="#E6E6E6"/>
<path d="M177.833 65.8755C175.135 65.8755 172.94 63.3056 172.94 60.1472C172.94 56.9888 175.135 54.4189 177.833 54.4189C180.531 54.4189 182.726 56.9888 182.726 60.1472C182.726 63.3056 180.531 65.8755 177.833 65.8755ZM177.833 56.7102C176.214 56.7102 174.897 58.2519 174.897 60.1472C174.897 62.0425 176.214 63.5842 177.833 63.5842C179.452 63.5842 180.769 62.0425 180.769 60.1472C180.769 58.2519 179.452 56.7102 177.833 56.7102Z" fill="white"/>
<path d="M185.361 69.7684C185.121 69.7684 184.881 69.666 184.692 69.4585L180.1 64.4199C179.705 63.9875 179.685 63.2625 180.055 62.801C180.424 62.3378 181.043 62.3149 181.438 62.7484L186.03 67.787C186.425 68.2194 186.445 68.9444 186.075 69.4059C185.883 69.647 185.622 69.7684 185.361 69.7684Z" fill="white"/>
<path d="M177.343 264.647C176.534 264.647 175.875 265.418 175.875 266.366V267.511C175.875 268.459 176.534 269.23 177.343 269.23H211.596C212.405 269.23 213.064 268.459 213.064 267.511V266.366C213.064 265.418 212.405 264.647 211.596 264.647H177.343Z" fill="#3F3D56"/>
<path d="M235.083 247.462H154.835C148.089 247.462 142.602 241.038 142.602 233.142V139.198C142.602 131.301 148.089 124.877 154.835 124.877H235.083C241.828 124.877 247.316 131.301 247.316 139.198V233.142C247.316 241.038 241.828 247.462 235.083 247.462ZM154.835 127.168C149.16 127.168 144.559 132.554 144.559 139.198V233.142C144.559 239.785 149.16 245.171 154.835 245.171H211.047C229.997 245.171 245.359 227.187 245.359 205.003V139.198C245.359 132.554 240.758 127.168 235.083 127.168H154.835Z" fill="#F2F2F2"/>
<path d="M166.578 136.906C160.373 136.906 155.324 142.816 155.324 150.081V170.703C155.324 177.968 160.373 183.878 166.578 183.878H184.194C190.4 183.878 195.448 177.968 195.448 170.703V150.081C195.448 142.816 190.4 136.906 184.194 136.906H166.578Z" fill="#F2F2F2"/>
<path d="M212.574 136.906C206.368 136.906 201.32 142.816 201.32 150.081V170.703C201.32 177.968 206.368 183.878 212.574 183.878H230.19C236.396 183.878 241.444 177.968 241.444 170.703V150.081C241.444 142.816 236.396 136.906 230.19 136.906H212.574Z" fill="#F2F2F2"/>
<path d="M163.153 189.034C156.947 189.034 151.899 194.944 151.899 202.209V222.831C151.899 230.096 156.947 236.006 163.153 236.006H180.769C186.974 236.006 192.023 230.096 192.023 222.831V202.209C192.023 194.944 186.974 189.034 180.769 189.034H163.153Z" fill="#F2F2F2"/>
<path d="M313.374 264.647C312.564 264.647 311.906 265.418 311.906 266.366V267.511C311.906 268.459 312.564 269.23 313.374 269.23H347.626C348.436 269.23 349.094 268.459 349.094 267.511V266.366C349.094 265.418 348.436 264.647 347.626 264.647H313.374Z" fill="#3F3D56"/>
<path d="M177.343 468.574C176.534 468.574 175.875 469.345 175.875 470.293V471.438C175.875 472.386 176.534 473.157 177.343 473.157H211.596C212.405 473.157 213.064 472.386 213.064 471.438V470.293C213.064 469.345 212.405 468.574 211.596 468.574H177.343Z" fill="#3F3D56"/>
<path d="M235.083 451.389H154.835C148.089 451.389 142.602 444.965 142.602 437.069V343.125C142.602 335.228 148.089 328.804 154.835 328.804H235.083C241.828 328.804 247.316 335.228 247.316 343.125V437.069C247.316 444.965 241.828 451.389 235.083 451.389ZM154.835 331.095C149.16 331.095 144.559 336.481 144.559 343.125V437.069C144.559 443.712 149.16 449.098 154.835 449.098H212.025C230.435 449.098 245.359 431.627 245.359 410.076V343.125C245.359 336.481 240.758 331.095 235.083 331.095H154.835Z" fill="#F2F2F2"/>
<path d="M163.153 340.26C156.947 340.26 151.899 346.171 151.899 353.436V374.057C151.899 381.322 156.947 387.232 163.153 387.232H180.769C186.974 387.232 192.023 381.322 192.023 374.057V353.436C192.023 346.171 186.974 340.26 180.769 340.26H163.153Z" fill="#F2F2F2"/>
<path d="M209.149 340.26C202.943 340.26 197.895 346.171 197.895 353.436V374.057C197.895 381.322 202.943 387.232 209.149 387.232H226.765C232.97 387.232 238.019 381.322 238.019 374.057V353.436C238.019 346.171 232.97 340.26 226.765 340.26H209.149Z" fill="#F2F2F2"/>
<path d="M163.153 392.961C156.947 392.961 151.899 398.871 151.899 406.136V426.758C151.899 434.023 156.947 439.933 163.153 439.933H180.769C186.974 439.933 192.023 434.023 192.023 426.758V406.136C192.023 398.871 186.974 392.961 180.769 392.961H163.153Z" fill="#F2F2F2"/>
<path d="M313.374 468.574C312.564 468.574 311.906 469.345 311.906 470.293V471.438C311.906 472.386 312.564 473.157 313.374 473.157H347.626C348.436 473.157 349.094 472.386 349.094 471.438V470.293C349.094 469.345 348.436 468.574 347.626 468.574H313.374Z" fill="#3F3D56"/>
<path d="M371.113 451.389H290.865C284.12 451.389 278.632 444.965 278.632 437.069V343.125C278.632 335.228 284.12 328.804 290.865 328.804H371.113C377.859 328.804 383.346 335.228 383.346 343.125V437.069C383.346 444.965 377.859 451.389 371.113 451.389ZM290.865 331.095C285.19 331.095 280.589 336.481 280.589 343.125V437.069C280.589 443.712 285.19 449.098 290.865 449.098H348.699C366.753 449.098 381.389 431.964 381.389 410.829V343.125C381.389 336.481 376.788 331.095 371.113 331.095H290.865Z" fill="#F2F2F2"/>
<path d="M299.184 340.26C292.978 340.26 287.929 346.171 287.929 353.436V374.057C287.929 381.322 292.978 387.232 299.184 387.232H316.799C323.005 387.232 328.053 381.322 328.053 374.057V353.436C328.053 346.171 323.005 340.26 316.799 340.26H299.184Z" fill="#F2F2F2"/>
<path d="M345.179 340.26C338.974 340.26 333.925 346.171 333.925 353.436V374.057C333.925 381.322 338.974 387.232 345.179 387.232H362.795C369.001 387.232 374.049 381.322 374.049 374.057V353.436C374.049 346.171 369.001 340.26 362.795 340.26H345.179Z" fill="#F2F2F2"/>
<path d="M299.184 392.961C292.978 392.961 287.929 398.871 287.929 406.136V426.758C287.929 434.023 292.978 439.933 299.184 439.933H316.799C323.005 439.933 328.053 434.023 328.053 426.758V406.136C328.053 398.871 323.005 392.961 316.799 392.961H299.184Z" fill="#F2F2F2"/>
<path d="M247.316 547.047V615.455C246.66 615.374 246.005 615.294 245.359 615.214V547.047C245.359 546.016 245.251 545.008 245.036 544.057C243.901 538.867 239.869 535.018 235.083 535.018H154.835C150.275 535.018 146.399 538.512 145.058 543.335C144.735 544.504 144.559 545.753 144.559 547.047V598.648C143.904 598.499 143.248 598.35 142.602 598.189V547.047C142.602 544.24 143.297 541.617 144.501 539.406C146.673 535.396 150.49 532.727 154.835 532.727H235.083C239.976 532.727 244.204 536.106 246.171 540.987C246.905 542.82 247.316 544.882 247.316 547.047Z" fill="#F2F2F2"/>
<path d="M180.769 544.188H163.153C156.949 544.188 151.899 550.099 151.899 557.363V577.984C151.899 585.248 156.949 591.16 163.153 591.16H180.769C186.973 591.16 192.023 585.248 192.023 577.984V557.363C192.023 550.099 186.973 544.188 180.769 544.188Z" fill="#F2F2F2"/>
<path d="M226.765 544.188H209.149C202.945 544.188 197.895 550.099 197.895 557.363V577.984C197.895 585.248 202.945 591.16 209.149 591.16H226.765C232.969 591.16 238.019 585.248 238.019 577.984V557.363C238.019 550.099 232.969 544.188 226.765 544.188Z" fill="#F2F2F2"/>
<path d="M180.769 596.883H163.153C159.973 596.883 157.096 598.441 155.05 600.927C166.226 603.23 178.675 605.453 191.818 607.561C190.819 601.489 186.249 596.883 180.769 596.883Z" fill="#F2F2F2"/>
<path d="M383.346 547.047V629.489H381.389V547.047C381.389 540.414 376.78 535.018 371.114 535.018H290.865C285.199 535.018 280.59 540.414 280.59 547.047V619.487C279.944 619.407 279.288 619.338 278.632 619.258V547.047C278.632 539.154 284.123 532.727 290.865 532.727H371.114C377.856 532.727 383.346 539.154 383.346 547.047Z" fill="#F2F2F2"/>
<path d="M316.799 544.188H299.184C292.979 544.188 287.929 550.099 287.929 557.363V577.984C287.929 585.248 292.979 591.16 299.184 591.16H316.799C323.004 591.16 328.053 585.248 328.053 577.984V557.363C328.053 550.099 323.004 544.188 316.799 544.188Z" fill="#F2F2F2"/>
<path d="M362.795 544.188H345.179C338.975 544.188 333.925 550.099 333.925 557.363V577.984C333.925 585.248 338.975 591.16 345.179 591.16H362.795C369 591.16 374.049 585.248 374.049 577.984V557.363C374.049 550.099 369 544.188 362.795 544.188Z" fill="#F2F2F2"/>
<path d="M316.799 596.883H299.184C292.979 596.883 287.93 602.795 287.93 610.058V620.312C302.286 621.939 315.899 623.371 328.054 624.597V610.058C328.054 602.795 323.004 596.883 316.799 596.883Z" fill="#F2F2F2"/>
<path d="M202.523 392.765C199.874 392.765 197.719 395.287 197.719 398.388V407.19C197.719 410.291 199.874 412.814 202.523 412.814H210.042C212.691 412.814 214.846 410.291 214.846 407.19V398.388C214.846 395.287 212.691 392.765 210.042 392.765H202.523Z" fill="#F2F2F2"/>
<path d="M226.01 392.765C223.362 392.765 221.207 395.287 221.207 398.388V407.19C221.207 410.291 223.362 412.814 226.01 412.814H233.529C236.178 412.814 238.333 410.291 238.333 407.19V398.388C238.333 395.287 236.178 392.765 233.529 392.765H226.01Z" fill="#F2F2F2"/>
<path d="M202.523 191.129C199.874 191.129 197.719 193.651 197.719 196.752V205.554C197.719 208.655 199.874 211.178 202.523 211.178H210.042C212.691 211.178 214.846 208.655 214.846 205.554V196.752C214.846 193.651 212.691 191.129 210.042 191.129H202.523Z" fill="#F2F2F2"/>
<path d="M226.01 191.129C223.362 191.129 221.207 193.651 221.207 196.752V205.554C221.207 208.655 223.362 211.178 226.01 211.178H233.529C236.178 211.178 238.333 208.655 238.333 205.554V196.752C238.333 193.651 236.178 191.129 233.529 191.129H226.01Z" fill="#F2F2F2"/>
<path d="M346.246 596.888H338.73C336.078 596.888 333.925 599.408 333.925 602.513V611.312C333.925 614.416 336.078 616.937 338.73 616.937H346.246C348.898 616.937 351.051 614.416 351.051 611.312V602.513C351.051 599.408 348.898 596.888 346.246 596.888Z" fill="#F2F2F2"/>
<path d="M369.733 596.888H362.217C359.565 596.888 357.412 599.408 357.412 602.513V611.312C357.412 614.416 359.565 616.937 362.217 616.937H369.733C372.386 616.937 374.539 614.416 374.539 611.312V602.513C374.539 599.408 372.386 596.888 369.733 596.888Z" fill="#F2F2F2"/>
<path d="M346.246 623.233H338.73C337.233 623.233 335.892 624.035 335.012 625.296C340.658 625.868 345.923 626.372 350.719 626.831C350.034 624.723 348.292 623.233 346.246 623.233Z" fill="#F2F2F2"/>
<path d="M369.734 623.233H362.218C359.977 623.233 358.088 625.032 357.569 627.472C364.782 628.148 370.566 628.664 374.539 629.007V628.859C374.539 625.754 372.386 623.233 369.734 623.233Z" fill="#F2F2F2"/>
<path d="M389.434 139.248L392.729 158.481L383.606 162.217L380.741 141.738C380.322 141.337 379.944 140.859 379.627 140.305C377.903 137.292 378.592 133.214 381.165 131.195C383.739 129.177 387.223 129.983 388.947 132.996C390.046 134.917 390.16 137.27 389.434 139.248Z" fill="#A0616A"/>
<path d="M437.14 265.182L450.493 248.343L407.685 197.082C407.685 197.082 405.936 195.157 407.118 194.89C408.3 194.624 406.512 192.551 406.512 192.551C406.512 192.551 403.724 189.45 405.961 190.418C408.197 191.385 405.362 188.106 405.362 188.106L395.336 149.361L393.558 142.489L378.585 152.952C378.585 152.952 378.718 154.282 378.982 156.55C380.318 167.996 385.011 203.336 392.934 212.316C402.428 223.077 437.14 265.182 437.14 265.182Z" fill="#3743AE"/>
<path d="M399.465 624.011L390.034 624.01L385.547 581.421L399.467 581.423L399.465 624.011Z" fill="#A0616A"/>
<path d="M399.797 635.529L370.794 635.528V635.098C370.794 627.8 375.848 621.883 382.083 621.883L387.381 617.178L397.266 621.884L399.798 621.884L399.797 635.529Z" fill="#2F2E41"/>
<path d="M476.409 613.188L467.49 616.778L451.415 578.214L464.579 572.915L476.409 613.188Z" fill="#A0616A"/>
<path d="M479.923 623.954L452.496 634.996L452.377 634.59C450.349 627.688 453.485 620.169 459.38 617.795L463.083 611.328L473.738 612.014L476.132 611.05L479.923 623.954Z" fill="#2F2E41"/>
<path d="M458.809 339.019H395.56C395.56 339.019 392.482 371.076 391.339 369.13C390.197 367.184 390.528 370.01 390.852 372.607C391.175 375.203 387.955 376.805 390.054 378.296C392.154 379.786 391.4 382.55 389.33 383.459C387.261 384.368 388.239 391.242 388.239 391.242L377.474 514.306L386.282 606.626H400.962L420.534 438.214V524.139L459.68 600.898L472.402 595.169L456.744 512.682L468.488 360.31L458.809 339.019Z" fill="#2F2E41"/>
<path d="M469.466 347.707L464.632 353.917L391.175 356.873L388.239 348.853L402.919 309.901L418.577 230.85L425.428 213.665V211.776C425.428 211.512 425.375 211.251 425.274 211.015C424.854 210.03 425.331 208.845 426.247 208.597L426.406 205.646L424.449 206.791L437.171 199.917L447.643 201.12L447.936 202.209L450.119 204.168C459.21 212.302 464.456 225.007 464.25 238.4L463.594 281.259L469.466 347.707Z" fill="#3F3D56"/>
<path d="M426.662 194.164C427.098 194.282 427.535 194.384 427.971 194.463C429.328 194.722 430.684 194.801 432.007 194.706C436.023 194.463 439.811 192.725 442.874 189.863C446.111 186.844 448.528 182.575 449.542 177.496C451.926 165.507 445.553 153.509 435.312 150.718C425.218 147.959 415.124 155.16 412.545 166.843C412.505 167.024 412.464 167.197 412.431 167.378C410.047 179.375 416.413 191.365 426.662 194.164Z" fill="#A0616A"/>
<path d="M397.723 348.868L407.523 332.956L416.068 338.241L405.197 354.632C405.231 355.265 405.188 355.914 405.057 356.563C404.344 360.092 401.322 362.275 398.308 361.441C395.294 360.606 393.428 357.068 394.141 353.539C394.596 351.289 395.991 349.59 397.723 348.868Z" fill="#A0616A"/>
<path d="M444.106 222.258H424.48L421.513 293.861C421.513 293.861 421.498 296.672 420.527 295.839C419.556 295.007 419.474 297.951 419.474 297.951C419.474 297.951 419.43 302.452 418.514 299.875C417.599 297.298 417.474 301.961 417.474 301.961L400.039 336.924L396.947 343.125L413.684 348.853C413.684 348.853 414.426 347.834 415.666 346.063C421.923 337.13 440.854 309.061 441.086 296.153C441.363 280.686 444.106 222.258 444.106 222.258Z" fill="#3743AE"/>
<path d="M418.577 238.87C418.577 238.87 434.235 214.811 447.936 237.724L445 207.937L430.026 204.709C429.148 204.598 428.39 205.423 428.419 206.456L418.577 238.87Z" fill="#3F3D56"/>
<path d="M424.449 214.811L424.4 210.847L423.95 209.999L424.449 209.083L424.527 208.877L426.406 199.917L443.141 193.044L447.643 201.12C440.88 206.459 439.344 215.006 424.449 214.811Z" fill="#3743AE"/>
<path d="M440.247 190.853L438.616 176.516C438.454 175.093 436.873 174.664 436.193 175.859H433.257L430.321 164.402C430.321 164.402 429.202 169.588 427.309 168.317C425.225 166.917 422.616 167.619 420.298 168.358L421.356 165.067L416.644 166.576L417.276 164.241L414.347 165.339C414.851 164.9 414.397 163.856 413.776 163.744C413.156 163.631 410.748 166.693 409.769 166.693C408.963 166.693 408.169 165.936 407.546 165.335C405.894 163.743 405.07 155.751 405.855 154.091C407.311 151.012 410.614 152.036 412.705 149.509C413.172 148.945 418.103 148.917 418.577 148.363C419.162 147.679 423.388 145.234 424.215 145.225C425.041 145.217 425.822 146.427 425.285 147.161C425.668 145.704 427.27 145.328 428.572 145.358C429.488 145.378 432.344 142.54 433.257 142.635C435.223 142.838 435.247 145.974 437.213 146.178C438.801 146.342 440.686 146.745 441.311 148.462C441.617 149.301 441.525 150.253 441.548 151.164C441.571 152.076 441.774 153.092 442.437 153.571C443.015 153.987 443.787 153.853 444.37 153.445C444.952 153.037 445.385 152.399 445.805 151.775C446.441 154.182 450.012 160.026 450.647 162.432C451.29 164.867 451.935 167.312 452.263 169.831C453.262 177.511 446.199 185.671 441.652 191.329" fill="#2F2E41"/>
<path d="M290.865 126.023C284.659 126.023 279.611 131.933 279.611 139.198V233.142C279.611 240.406 284.659 246.317 290.865 246.317H371.113C377.319 246.317 382.368 240.406 382.368 233.142V139.198C382.368 131.933 377.319 126.023 371.113 126.023H290.865Z" fill="#F2F2F2"/>
<path d="M299.184 136.333C292.978 136.333 287.929 142.244 287.929 149.508V170.13C287.929 177.395 292.978 183.305 299.184 183.305H316.799C323.005 183.305 328.053 177.395 328.053 170.13V149.508C328.053 142.244 323.005 136.333 316.799 136.333H299.184Z" fill="#3743AE"/>
<path d="M345.179 136.333C338.974 136.333 333.925 142.244 333.925 149.508V170.13C333.925 177.395 338.974 183.305 345.179 183.305H362.795C369.001 183.305 374.049 177.395 374.049 170.13V149.508C374.049 142.244 369.001 136.333 362.795 136.333H345.179Z" fill="#3743AE"/>
<path d="M299.184 189.034C292.978 189.034 287.929 194.944 287.929 202.209V222.831C287.929 230.096 292.978 236.006 299.184 236.006H316.799C323.005 236.006 328.053 230.096 328.053 222.831V202.209C328.053 194.944 323.005 189.034 316.799 189.034H299.184Z" fill="white"/>
<path d="M338.729 189.034C336.08 189.034 333.925 191.556 333.925 194.657V203.459C333.925 206.56 336.08 209.083 338.729 209.083H346.248C348.896 209.083 351.051 206.56 351.051 203.459V194.657C351.051 191.556 348.896 189.034 346.248 189.034H338.729Z" fill="white"/>
<path d="M362.216 189.034C359.567 189.034 357.412 191.556 357.412 194.657V203.459C357.412 206.56 359.567 209.083 362.216 209.083H369.735C372.384 209.083 374.539 206.56 374.539 203.459V194.657C374.539 191.556 372.384 189.034 369.735 189.034H362.216Z" fill="white"/>
<path d="M338.729 215.384C336.08 215.384 333.925 217.906 333.925 221.007V229.809C333.925 232.91 336.08 235.433 338.729 235.433H346.248C348.896 235.433 351.051 232.91 351.051 229.809V221.007C351.051 217.906 348.896 215.384 346.248 215.384H338.729Z" fill="white"/>
<path d="M362.216 215.384C359.567 215.384 357.412 217.906 357.412 221.007V229.809C357.412 232.91 359.567 235.433 362.216 235.433H369.735C372.384 235.433 374.539 232.91 374.539 229.809V221.007C374.539 217.906 372.384 215.384 369.735 215.384H362.216Z" fill="white"/>
<path d="M487.9 617.142C489.922 617.291 491.039 614.35 489.51 612.636L489.358 611.928C489.378 611.871 489.398 611.815 489.418 611.758C491.463 606.05 498.392 606.09 500.419 611.806C502.219 616.879 504.51 621.961 505.074 627.325C505.326 629.693 505.213 632.105 504.764 634.428C508.98 623.647 511.199 611.874 511.199 600.035C511.199 597.06 511.059 594.085 510.775 591.118C510.541 588.691 510.219 586.279 509.802 583.889C507.545 570.969 502.659 558.663 495.611 548.385C492.223 546.217 489.398 542.828 487.691 538.766C487.078 537.301 486.598 535.724 486.37 534.119C486.756 534.178 487.824 527.304 487.533 526.882C488.07 525.927 489.032 525.453 489.619 524.521C492.538 519.889 496.559 520.698 498.658 526.993C503.142 529.642 503.186 534.036 500.434 538.263C498.684 540.951 498.443 544.589 496.907 547.468C497.065 547.704 497.229 547.934 497.387 548.171C500.285 552.522 502.792 557.198 504.904 562.112C504.307 556.651 505.189 550.073 506.692 545.832C508.403 541.001 511.609 536.932 514.433 532.755C517.825 527.738 524.781 529.927 525.378 536.287C525.384 536.349 525.39 536.41 525.395 536.472C524.976 536.749 524.565 537.043 524.163 537.354C521.874 539.126 522.665 543.281 525.378 543.772L525.439 543.783C525.288 545.551 525.029 547.305 524.649 549.029C528.272 565.43 520.451 571.404 509.283 571.672C509.037 571.82 508.797 571.968 508.55 572.109C509.682 575.838 510.585 579.664 511.255 583.541C511.856 586.967 512.273 590.43 512.507 593.908C512.798 598.296 512.772 602.706 512.456 607.087L512.475 606.931C513.278 602.107 515.516 597.6 518.765 594.478C523.605 589.823 530.443 588.109 535.664 584.368C538.177 582.567 541.398 584.894 540.96 588.306L540.938 588.469C540.161 588.839 539.402 589.268 538.669 589.749C538.25 590.026 537.839 590.321 537.437 590.631C535.148 592.404 535.939 596.559 538.652 597.049L538.713 597.06C538.758 597.068 538.795 597.075 538.84 597.082C537.506 600.789 535.648 604.23 533.322 607.198C531.056 621.515 521.327 622.873 510.92 618.704H510.914C509.776 624.505 508.114 630.174 505.977 635.575H488.342C488.279 635.346 488.222 635.109 488.165 634.88C489.796 634.998 491.439 634.887 493.045 634.539C491.737 632.66 490.428 630.766 489.12 628.886C489.088 628.849 489.063 628.812 489.038 628.775C488.374 627.813 487.704 626.859 487.04 625.897L487.04 625.895C486.998 622.942 487.301 619.999 487.9 617.142Z" fill="#F2F2F2"/>
<path d="M0 635.637C0 636.393 0.518706 637 1.16464 637H539.698C540.344 637 540.863 636.393 540.863 635.637C540.863 634.881 540.344 634.273 539.698 634.273H1.16464C0.518706 634.273 0 634.881 0 635.637Z" fill="#CCCCCC"/>
</g>
<defs>
<clipPath id="clip0_203_104">
<rect width="541" height="637" fill="white"/>
</clipPath>
</defs>
</svg>
