<svg width="672" height="545" viewBox="0 0 672 545" fill="none" xmlns="http://www.w3.org/2000/svg">
<g clip-path="url(#clip0_203_255)">
<path d="M559.059 514.607L557.896 529.722L534.238 522.165L543.932 510.83L559.059 514.607Z" fill="#FEB8B8"/>
<path d="M645.159 509.696L643.994 524.431L630.808 526.32L623.051 519.141L631.971 505.161L645.159 509.696Z" fill="#FEB8B8"/>
<path d="M654.855 321.529C654.855 321.529 665.327 333.62 652.14 352.135C638.953 370.649 623.052 388.786 623.052 388.786L593.573 443.195C593.573 443.195 578.448 496.471 574.957 497.982C571.466 499.493 569.528 493.448 571.466 499.871C573.405 506.294 572.242 505.917 570.691 506.296C569.14 506.676 564.874 505.919 566.425 508.564C567.976 511.209 569.14 511.209 566.037 511.209C562.934 511.209 561.771 509.32 561.771 511.964C561.771 514.609 559.056 520.655 559.056 520.655C559.056 520.655 540.052 515.365 539.276 513.098C538.501 510.83 544.318 509.697 543.155 507.43C541.991 505.164 541.603 505.163 541.603 501.763C541.603 498.363 543.931 497.607 543.931 497.607C543.931 497.607 545.87 496.851 545.094 495.34C544.319 493.828 541.216 494.584 545.094 492.694C548.972 490.805 564.875 432.994 564.875 432.994C564.875 432.994 564.875 404.274 569.917 394.83C574.959 385.386 571.08 318.128 583.107 317.373C595.134 316.617 654.855 321.529 654.855 321.529Z" fill="#2F2E41"/>
<path d="M650.977 343.066L648.649 401.632C648.649 401.632 660.284 458.308 656.406 475.689C652.528 493.069 655.243 490.802 652.915 493.825C650.588 496.848 648.649 495.336 650.588 497.982C652.527 500.627 653.687 501.382 650.588 504.407C647.489 507.431 645.934 514.609 645.934 514.609L626.155 512.72C626.155 512.72 631.196 504.03 629.253 502.14C627.311 500.251 622.272 503.273 626.155 499.121C630.037 494.969 632.36 496.854 630.033 494.965C627.706 493.076 624.216 493.832 627.318 490.809C630.42 487.786 633.913 487.79 630.808 486.652C627.704 485.515 624.213 486.652 625.767 484.385C627.32 482.118 629.257 479.473 629.257 479.473L624.604 445.09C624.604 445.09 619.174 433.754 620.725 428.842C622.276 423.931 614.13 383.501 614.13 383.501L650.977 343.066Z" fill="#2F2E41"/>
<path d="M642.446 517.252C642.446 517.252 646.324 513.473 647.488 515.741C648.651 518.008 657.181 538.411 652.141 539.922C647.101 541.433 639.731 542.941 635.852 541.811C631.974 540.681 623.83 535.386 614.134 535.386C604.438 535.386 596.294 531.23 596.294 529.719C596.294 528.208 594.743 519.139 602.111 519.139C609.479 519.139 623.054 510.827 623.054 510.827C623.054 510.827 626.153 504.781 627.708 505.159C629.263 505.538 628.096 517.628 628.096 517.628C628.096 517.628 637.014 525.942 642.446 517.252Z" fill="#2F2E41"/>
<path d="M556.345 522.163C556.345 522.163 559.835 513.851 563.326 515.738C566.816 517.626 564.489 541.052 564.489 541.052C564.489 541.052 561.39 545.964 552.466 544.83C543.542 543.697 519.888 541.052 514.458 542.185C509.028 543.318 494.291 536.896 498.169 528.205C498.169 528.205 500.108 523.293 509.416 523.671C518.725 524.048 535.789 513.091 535.789 513.091C535.789 513.091 538.505 505.534 539.28 506.289C540.056 507.045 540.831 520.27 540.831 520.27C540.831 520.27 550.915 526.697 556.345 522.163Z" fill="#2F2E41"/>
<path d="M607.151 173.793C619.575 173.793 629.646 163.981 629.646 151.878C629.646 139.775 619.575 129.963 607.151 129.963C594.728 129.963 584.657 139.775 584.657 151.878C584.657 163.981 594.728 173.793 607.151 173.793Z" fill="#FEB8B8"/>
<path d="M624.604 153.389C624.604 153.389 636.626 176.815 640.893 179.083C645.159 181.35 611.805 195.33 611.805 195.33C611.805 195.33 606.376 172.282 599.782 167.37C593.189 162.458 624.604 153.389 624.604 153.389Z" fill="#FEB8B8"/>
<path d="M590.087 344.955L588.536 359.313C588.536 359.313 571.859 353.646 577.288 343.066L590.087 344.955Z" fill="#FEB8B8"/>
<path d="M583.496 323.418C595.131 335.506 656.794 325.304 656.794 325.304L656.021 316.615L663.778 308.685L661.452 271.654C661.452 271.654 668.429 254.275 669.591 227.826C669.662 226.2 669.561 224.572 669.291 222.966C665.292 199.273 625.692 184.013 624.604 184.371C624.057 184.547 618.228 187.506 612.144 190.62C605.161 194.194 597.847 197.974 597.847 197.974C588.537 201.38 590.09 255.79 586.985 260.701C583.879 265.612 586.985 282.609 586.985 282.609L583.496 298.855C583.496 298.855 571.857 311.331 583.496 323.418Z" fill="#F0F0F0"/>
<path opacity="0.1" d="M621.084 203.468C621.084 203.468 631.943 235.207 629.616 256.744C627.289 278.281 602.08 339.87 602.08 339.87L593.551 344.404V354.983L587.55 339.146L604.053 305.528C604.053 305.528 583.46 189.488 621.084 203.468Z" fill="black"/>
<path opacity="0.1" d="M610.899 193.945C622.151 187.901 639.217 203.776 657.056 220.773C663.463 226.876 667.168 226.262 669.293 222.966C665.294 199.272 625.694 184.012 624.606 184.371C624.059 184.546 618.229 187.506 612.146 190.619L610.899 193.945Z" fill="black"/>
<path d="M610.904 191.024L615.558 178.555C615.558 178.555 647.361 163.819 668.303 178.555L671.794 199.714C671.794 199.714 674.893 234.854 657.056 217.851C639.219 200.848 622.15 184.978 610.904 191.024Z" fill="#F0F0F0"/>
<path d="M619.95 198.353C619.95 198.353 630.81 230.091 628.483 251.629C626.155 273.166 600.946 334.754 600.946 334.754L592.414 339.292V349.871L574.574 344.96L578.452 332.491C578.452 332.491 572.247 324.934 576.514 322.667C580.781 320.399 580.004 307.931 580.004 307.931C580.004 307.931 582.33 184.372 619.95 198.353Z" fill="#F0F0F0"/>
<path d="M627.205 161.052C626.838 159.358 626.887 157.536 626.054 156.007C624.805 153.715 621.932 152.756 619.277 152.53C615.889 152.243 612.474 152.814 609.081 152.588C605.687 152.362 602.062 151.101 600.373 148.226C599.699 147.078 599.367 145.728 598.473 144.733C596.613 142.663 593.222 142.983 590.549 143.87C587.876 144.758 585.088 146.053 582.355 145.36C580.058 139.097 582.887 131.872 587.781 127.234C592.675 122.596 599.275 120.101 605.83 118.24C614.476 115.786 624.205 114.337 632.155 118.459C643.682 124.436 647.749 140.256 646.686 152.047C646.284 156.505 645.627 161.552 641.928 164.561C636.507 168.972 628.842 168.593 627.205 161.052Z" fill="#2F2E41"/>
<path d="M486.066 0.268677H0.208191V303.417H486.066V0.268677Z" fill="#E6E6E6"/>
<path d="M473.762 38.2908H15.6899V285.482H473.762V38.2908Z" fill="white"/>
<path d="M485.858 0H0V20.1091H485.858V0Z" fill="#3743AE"/>
<path d="M15.3395 14.0083C17.4525 14.0083 19.1654 12.3395 19.1654 10.2809C19.1654 8.22238 17.4525 6.55359 15.3395 6.55359C13.2265 6.55359 11.5135 8.22238 11.5135 10.2809C11.5135 12.3395 13.2265 14.0083 15.3395 14.0083Z" fill="white"/>
<path d="M29.8605 14.0083C31.9735 14.0083 33.6864 12.3395 33.6864 10.2809C33.6864 8.22238 31.9735 6.55359 29.8605 6.55359C27.7475 6.55359 26.0346 8.22238 26.0346 10.2809C26.0346 12.3395 27.7475 14.0083 29.8605 14.0083Z" fill="white"/>
<path d="M44.3816 14.0083C46.4946 14.0083 48.2075 12.3395 48.2075 10.2809C48.2075 8.22238 46.4946 6.55359 44.3816 6.55359C42.2686 6.55359 40.5556 8.22238 40.5556 10.2809C40.5556 12.3395 42.2686 14.0083 44.3816 14.0083Z" fill="white"/>
<path d="M95.831 72.9377L65.531 102.089L95.831 131.239L102.649 124.597L79.7367 102.272L102.84 79.7639L95.831 72.9377Z" fill="#3743AE"/>
<path d="M120.658 72.9377L150.957 102.089L120.658 131.239L113.84 124.597L136.754 102.273L113.649 79.7639L120.658 72.9377Z" fill="#3743AE"/>
<path d="M218.665 80.2531C216.187 80.2531 214.178 81.6419 214.178 83.3542C214.178 85.0665 216.187 86.4553 218.665 86.4553H430.195C432.673 86.4553 434.682 85.0665 434.682 83.3542C434.682 81.6419 432.673 80.2531 430.195 80.2531H218.665Z" fill="#E6E6E6"/>
<path d="M428.092 250.155H72.2461C68.6085 250.155 65.6606 248.109 65.6566 245.587V184.4C65.6606 181.879 68.6085 179.833 72.2461 179.833H428.092C431.729 179.833 434.677 181.879 434.681 184.4V245.587C434.678 248.108 431.729 250.152 428.092 250.155ZM72.2461 181.658C70.0634 181.658 68.2946 182.886 68.2922 184.398V245.585C68.2922 247.098 70.0634 248.324 72.2461 248.325H428.092C430.274 248.325 432.043 247.098 432.045 245.585V184.4C432.045 182.887 430.274 181.661 428.092 181.66L72.2461 181.658Z" fill="#E6E6E6"/>
<path d="M108.89 230.478C117.682 230.478 124.81 223.533 124.81 214.967C124.81 206.401 117.682 199.457 108.89 199.457C100.097 199.457 92.9697 206.401 92.9697 214.967C92.9697 223.533 100.097 230.478 108.89 230.478Z" fill="#E6E6E6"/>
<path d="M153.792 202.563C152.948 202.562 152.138 202.888 151.54 203.468C150.942 204.049 150.606 204.838 150.605 205.66C150.604 206.483 150.938 207.272 151.534 207.854C152.13 208.436 152.94 208.764 153.784 208.765H303.858C304.702 208.765 305.512 208.438 306.109 207.857C306.706 207.275 307.041 206.487 307.041 205.664C307.041 204.842 306.706 204.053 306.109 203.471C305.512 202.89 304.702 202.563 303.858 202.563H153.792Z" fill="#3743AE"/>
<path d="M153.792 221.17C153.374 221.17 152.96 221.25 152.574 221.405C152.187 221.56 151.836 221.788 151.54 222.076C150.942 222.657 150.606 223.445 150.605 224.267C150.604 225.09 150.938 225.879 151.534 226.461C152.13 227.044 152.94 227.371 153.784 227.373H218.365C219.209 227.374 220.019 227.048 220.617 226.467C221.214 225.886 221.551 225.098 221.552 224.275C221.553 223.453 221.219 222.664 220.623 222.081C220.026 221.499 219.217 221.171 218.373 221.17H153.792Z" fill="#3743AE"/>
<path d="M217.12 98.8318C216.32 98.8946 215.574 99.2486 215.03 99.8232C214.486 100.398 214.184 101.151 214.184 101.933C214.184 102.715 214.486 103.468 215.03 104.043C215.574 104.617 216.32 104.971 217.12 105.034H355.752C356.552 104.971 357.298 104.617 357.842 104.043C358.386 103.468 358.688 102.715 358.688 101.933C358.688 101.151 358.386 100.398 357.842 99.8232C357.298 99.2486 356.552 98.8946 355.752 98.8318H217.12Z" fill="#E6E6E6"/>
<path d="M218.033 117.411C215.904 117.411 214.178 118.799 214.178 120.512C214.178 122.224 215.904 123.613 218.033 123.613H399.754C401.883 123.613 403.609 122.224 403.609 120.512C403.609 118.799 401.883 117.411 399.754 117.411H218.033Z" fill="#E6E6E6"/>
</g>
<defs>
<clipPath id="clip0_203_255">
<rect width="672" height="545" fill="white"/>
</clipPath>
</defs>
</svg>
